<svg xmlns="http://www.w3.org/2000/svg" version="1.1" xmlns:xlink="http://www.w3.org/1999/xlink" xmlns:svgjs="http://svgjs.com/svgjs" width="1920" height="1080" preserveAspectRatio="none" viewBox="0 0 1920 1080"><g mask="url(&quot;#SvgjsMask1521&quot;)" fill="none"><rect width="1920" height="1080" x="0" y="0" fill="url(#SvgjsLinearGradient1522)"></rect><path d="M1738.9447521453535 860.7227291727245L1677.0208276579594 611.3472154650451 1512.748752107117 764.5334041473515z" fill="rgba(28, 83, 142, 0.4)" class="triangle-float2"></path><path d="M1370.746877959722 539.7972185878035L1293.377019692767 373.87702209547444 1127.4568232004378 451.24688036242964 1204.826681467393 617.1670768547588z" fill="rgba(28, 83, 142, 0.4)" class="triangle-float1"></path><path d="M1910.975,688.533C1966.939,687.555,2021.889,668.332,2052.598,621.535C2086.549,569.799,2097.28,503.62,2068.145,449.027C2037.437,391.488,1976.193,355.644,1910.975,356.168C1846.613,356.685,1789.408,395.271,1758.118,451.517C1727.7,506.197,1726.599,574.055,1760.512,626.639C1792.015,675.487,1852.858,689.549,1910.975,688.533" fill="rgba(28, 83, 142, 0.4)" class="triangle-float2"></path><path d="M1551.278,1062.73C1589.145,1062.546,1620.646,1037.912,1640.664,1005.769C1662.141,971.283,1675.549,929.278,1656.848,893.211C1636.892,854.723,1594.625,832.582,1551.278,833.373C1509.221,834.141,1471.722,859.699,1452.18,896.948C1433.922,931.75,1440.212,972.912,1460.376,1006.645C1479.955,1039.399,1513.118,1062.915,1551.278,1062.73" fill="rgba(28, 83, 142, 0.4)" class="triangle-float3"></path><path d="M1342.1790675313587 470.7434966466701L1133.770636312181 679.1519278658477 1342.1790675313587 887.5603590850253 1550.5874987505363 679.1519278658477z" fill="rgba(28, 83, 142, 0.4)" class="triangle-float2"></path><path d="M552.85,535.75C601.403,536.274,643.396,506.867,669.423,465.876C697.8,421.184,714.84,366.122,690.358,319.183C664.335,269.291,609.096,240.71,552.85,242.376C499.228,243.964,453.06,279.103,428.761,326.93C406.594,370.562,415.556,421.333,440.557,463.405C464.936,504.431,505.13,535.235,552.85,535.75" fill="rgba(28, 83, 142, 0.4)" class="triangle-float2"></path><path d="M1044.178,383.174C1091.428,379.705,1120.857,336.681,1143.086,294.843C1163.555,256.318,1175.736,212.105,1155.643,173.383C1134.058,131.787,1091.003,102.356,1044.178,104.234C999.859,106.012,970.467,143.985,947.195,181.745C922.202,222.297,895.783,268.564,916.448,311.483C939.149,358.633,991.988,387.006,1044.178,383.174" fill="rgba(28, 83, 142, 0.4)" class="triangle-float1"></path><path d="M165.79753316956058 480.5700446068646L321.4246160425781 375.598251757672 216.45282319338554 219.97116888465445 60.825740320367984 324.942961733847z" fill="rgba(28, 83, 142, 0.4)" class="triangle-float1"></path><path d="M1023.9173220847131 1045.0314925624853L1069.4867359836287 786.5945039869305 811.049747408074 741.0250900880148 765.4803335091583 999.4620786635696z" fill="rgba(28, 83, 142, 0.4)" class="triangle-float3"></path><path d="M1597.4437624894774 482.583890638824L1792.3819352184223 692.0293190002902 1869.6730854493303 454.1516183652854z" fill="rgba(28, 83, 142, 0.4)" class="triangle-float2"></path><path d="M385.2629579758071 585.6757283429888L451.08587918173043 356.1239221936496 155.7111518264679 519.8528071370655z" fill="rgba(28, 83, 142, 0.4)" class="triangle-float2"></path><path d="M754.548,1070.417C855.458,1076.236,975.744,1078.937,1026.197,991.351C1076.611,903.834,1014.144,801.02,958.153,716.962C909.939,644.58,841.509,584.812,754.548,583.529C665.517,582.215,585.284,633.977,540.263,710.797C494.705,788.533,486.11,885.465,532.232,962.868C577.396,1038.663,666.463,1065.338,754.548,1070.417" fill="rgba(28, 83, 142, 0.4)" class="triangle-float3"></path></g><defs><mask id="SvgjsMask1521"><rect width="1920" height="1080" fill="#ffffff"></rect></mask><linearGradient x1="10.94%" y1="-19.44%" x2="89.06%" y2="119.44%" gradientUnits="userSpaceOnUse" id="SvgjsLinearGradient1522"><stop stop-color="#0e2a47" offset="0"></stop><stop stop-color="rgba(81, 0, 94, 0.95)" offset="1"></stop></linearGradient><style>
            @keyframes float1 {
                0%{transform: translate(0, 0)}
                50%{transform: translate(-10px, 0)}
                100%{transform: translate(0, 0)}
            }

            .triangle-float1 {
                animation: float1 5s infinite;
            }

            @keyframes float2 {
                0%{transform: translate(0, 0)}
                50%{transform: translate(-5px, -5px)}
                100%{transform: translate(0, 0)}
            }

            .triangle-float2 {
                animation: float2 4s infinite;
            }

            @keyframes float3 {
                0%{transform: translate(0, 0)}
                50%{transform: translate(0, -10px)}
                100%{transform: translate(0, 0)}
            }

            .triangle-float3 {
                animation: float3 6s infinite;
            }
        </style></defs></svg>